<?xml version="1.0" standalone="no"?>
<!DOCTYPE svg PUBLIC "-//W3C//DTD SVG 20010904//EN"
 "http://www.w3.org/TR/2001/REC-SVG-20010904/DTD/svg10.dtd">
<svg version="1.0" xmlns="http://www.w3.org/2000/svg"
 width="92.000000pt" height="92.000000pt" viewBox="0 0 92.000000 92.000000"
 preserveAspectRatio="xMidYMid meet">
<metadata>
Created by potrace 1.14, written by Peter Selinger 2001-2017
</metadata>
<g transform="translate(0.000000,92.000000) scale(0.100000,-0.100000)"
fill="#000000" stroke="none">
<path d="M745 705 c-71 -31 -138 -101 -232 -242 -48 -70 -145 -203 -153 -208
-5 -3 6 21 25 55 19 33 34 64 35 68 0 4 5 23 10 42 39 140 -35 270 -155 270
-51 0 -116 -33 -159 -80 -70 -78 -91 -162 -57 -232 48 -100 154 -106 225 -14
65 86 67 202 4 222 -44 14 -86 -33 -56 -62 12 -12 17 -12 33 0 16 12 17 16 6
30 -11 14 -11 16 2 16 22 0 47 -39 47 -73 0 -39 -49 -135 -80 -157 -88 -63
-181 3 -165 118 23 172 215 283 291 167 39 -60 21 -250 -35 -368 -15 -32 -24
-60 -20 -62 14 -9 126 124 211 252 135 201 197 252 306 253 38 0 52 4 49 13
-6 20 -79 16 -132 -8z"/>
</g>
</svg>
