<svg id="Layer_1" data-name="Layer 1" xmlns="http://www.w3.org/2000/svg" viewBox="0 0 600 600"><defs><style>.cls-1{fill:#4a494a;}</style></defs><path class="cls-1" d="M404.27,368.44c35.12-13.87,64.84-33.37,91.88-57.48,9.32-8.3,9-13.41-.28-21.49-27.25-23.85-56.41-44.86-90.3-57.7C318.94,199,233.66,201.1,151.91,247.07c-26.27,14.77-52.2,31.36-71.2,55.63-8.69,11.11-14.28,8.49-23.1.76-20.53-18-19.79-17.39.69-37.1,40.31-38.78,86.5-66.79,139.81-83.38,65-20.23,130.12-19.17,194.67.86,40,12.4,76.11,32.2,109.8,58C521.36,256.19,535.4,274,551.83,290c8,7.8,6.94,13.13-.2,21.36-39.14,45.07-86.48,78-141.61,100.52-31.18,12.75-63.48,18.64-96.73,19.77-49,1.66-92.91-32.64-102.42-79.06-10.4-50.76,14.16-98.1,60.62-116.83,46.16-18.61,97.69-2.17,124.05,40.54C413.18,304.85,414.94,335.76,404.27,368.44Zm-34.09-37.77c0-30.62-24.9-60.14-51.34-60.32C268.36,270,251.4,294.5,249,330c-2.23,32.75,26.62,60.59,59.39,60.37C346,390.15,367,369.09,370.18,330.67Z"/></svg>